<svg width="18" height="15" class="dib v-mid" viewBox="0 0 20 16" xmlns="http://www.w3.org/2000/svg"><title>cart</title><path d="M16.453 12.158a.789.789 0 0 0 0-1.576H5.802L1.513.48a.788.788 0 0 0-1.45.616l4.388 10.34a.782.782 0 0 0 .305.357c.14.22.386.366.666.366h11.031zm-9.85.788a1.38 1.38 0 1 1 0 2.758 1.38 1.38 0 0 1 0-2.758zm8.275 0a1.38 1.38 0 1 1 0 2.758 1.38 1.38 0 0 1 0-2.758zM20 2.308v.557l-.555 1.216H4.15l-.365-.844-.36-.929H20zm-1.005 2.758H4.577l.767 1.773h12.842l.81-1.773zm-1.259 2.758H5.77l.767 1.773h10.39l.81-1.773z" fill-rule="evenodd"></path></svg>